<svg xmlns="http://www.w3.org/2000/svg" version="1.1" xmlns:xlink="http://www.w3.org/1999/xlink" xmlns:svgjs="http://svgjs.com/svgjs" width="300" height="500" preserveAspectRatio="none" viewBox="0 0 300 500"><g mask="url(&quot;#SvgjsMask1086&quot;)" fill="none"><rect width="300" height="500" x="0" y="0" fill="rgba(21, 115, 71, 1)"></rect><path d="M230 424L425 229" stroke-width="6" stroke="url(#SvgjsLinearGradient1087)" stroke-linecap="round" class="BottomLeft"></path><path d="M241 170L400 11" stroke-width="10" stroke="url(#SvgjsLinearGradient1087)" stroke-linecap="round" class="BottomLeft"></path><path d="M231 336L58 509" stroke-width="6" stroke="url(#SvgjsLinearGradient1087)" stroke-linecap="round" class="BottomLeft"></path><path d="M15 149L-100 264" stroke-width="10" stroke="url(#SvgjsLinearGradient1087)" stroke-linecap="round" class="BottomLeft"></path><path d="M248 126L385 -11" stroke-width="10" stroke="url(#SvgjsLinearGradient1087)" stroke-linecap="round" class="BottomLeft"></path><path d="M212 146L418 -60" stroke-width="8" stroke="url(#SvgjsLinearGradient1088)" stroke-linecap="round" class="TopRight"></path><path d="M65 348L-58 471" stroke-width="10" stroke="url(#SvgjsLinearGradient1087)" stroke-linecap="round" class="BottomLeft"></path><path d="M61 177L278 -40" stroke-width="8" stroke="url(#SvgjsLinearGradient1087)" stroke-linecap="round" class="BottomLeft"></path><path d="M285 136L410 11" stroke-width="10" stroke="url(#SvgjsLinearGradient1087)" stroke-linecap="round" class="BottomLeft"></path><path d="M117 248L10 355" stroke-width="10" stroke="url(#SvgjsLinearGradient1088)" stroke-linecap="round" class="TopRight"></path><path d="M22 168L-175 365" stroke-width="10" stroke="url(#SvgjsLinearGradient1087)" stroke-linecap="round" class="BottomLeft"></path><path d="M246 362L422 186" stroke-width="10" stroke="url(#SvgjsLinearGradient1088)" stroke-linecap="round" class="TopRight"></path><path d="M200 267L302 165" stroke-width="6" stroke="url(#SvgjsLinearGradient1088)" stroke-linecap="round" class="TopRight"></path><path d="M79 98L-39 216" stroke-width="6" stroke="url(#SvgjsLinearGradient1088)" stroke-linecap="round" class="TopRight"></path><path d="M288 475L491 272" stroke-width="10" stroke="url(#SvgjsLinearGradient1087)" stroke-linecap="round" class="BottomLeft"></path></g><defs><mask id="SvgjsMask1086"><rect width="300" height="500" fill="#ffffff"></rect></mask><linearGradient x1="100%" y1="0%" x2="0%" y2="100%" id="SvgjsLinearGradient1087"><stop stop-color="rgba(12, 151, 80, 0)" offset="0"></stop><stop stop-color="rgba(12, 151, 80, 1)" offset="1"></stop></linearGradient><linearGradient x1="0%" y1="100%" x2="100%" y2="0%" id="SvgjsLinearGradient1088"><stop stop-color="rgba(12, 151, 80, 0)" offset="0"></stop><stop stop-color="rgba(12, 151, 80, 1)" offset="1"></stop></linearGradient></defs></svg>